# xmcd
# 
# Track frame offsets:
#     182
#     24985
#     46462
#     63060
#     80697
#     102945
#     119497
#     135250
#     151492
#     176655
# 
# Disc length: 2556
# 
# Revision: 27
# Processed by: cddbd v1.5.2PL0 Copyright (c) Steve Scherf et al.
# Submitted via: fre:ac v1.0.31
# 
DISCID=7a09fa0a
DTITLE=Jackson Browne - Running On Empty
DYEAR=1977
DGENRE=Rock/Pop
TTITLE0=Running On Empty
TTITLE1=The Road
TTITLE2=Rosie
TTITLE3=You Love The Thunder
TTITLE4=Cocaine
TTITLE5=Shaky Town
TTITLE6=Love Needs A Heart
TTITLE7=Nothing But Time
TTITLE8=The Load Out
TTITLE9=Stay
EXTD=ID3G:   1 YEAR: 1977
EXTT0=
EXTT1=
EXTT2=
EXTT3=
EXTT4=
EXTT5=
EXTT6=
EXTT7=
EXTT8=
EXTT9=
PLAYORDER=
